<?xml version="1.0" encoding="UTF-8"?>
<!DOCTYPE svg PUBLIC "-//W3C//DTD SVG 1.1//EN" "http://www.w3.org/Graphics/SVG/1.1/DTD/svg11.dtd">
<svg xmlns="http://www.w3.org/2000/svg" version="1.1" width="225px" height="225px" style="shape-rendering:geometricPrecision; text-rendering:geometricPrecision; image-rendering:optimizeQuality; fill-rule:evenodd; clip-rule:evenodd" xmlns:xlink="http://www.w3.org/1999/xlink">
<g><path style="opacity:1" fill="#fefefe" d="M -0.5,-0.5 C 74.5,-0.5 149.5,-0.5 224.5,-0.5C 224.5,74.5 224.5,149.5 224.5,224.5C 149.5,224.5 74.5,224.5 -0.5,224.5C -0.5,149.5 -0.5,74.5 -0.5,-0.5 Z"/></g>
<g><path style="opacity:1" fill="#febb02" d="M 156.5,119.5 C 140.105,102.07 120.772,97.9034 98.5,107C 84.1021,114.963 76.1021,127.13 74.5,143.5C 63.4466,142.297 53.7799,145.297 45.5,152.5C 25.9242,139.038 14.7575,120.371 12,96.5C 11.321,57.1889 29.4877,31.0222 66.5,18C 107.133,9.73554 136.966,23.9022 156,60.5C 163.143,80.0916 163.309,99.7583 156.5,119.5 Z"/></g>
<g><path style="opacity:1" fill="#6d6d6c" d="M 156.5,119.5 C 158.554,123.939 160.887,128.272 163.5,132.5C 187.535,128.766 203.368,138.433 211,161.5C 213.874,183.596 205.041,198.763 184.5,207C 142.872,208.639 101.205,208.972 59.5,208C 41.4623,200.43 33.9623,186.93 37,167.5C 38.8191,161.855 41.6524,156.855 45.5,152.5C 53.7799,145.297 63.4466,142.297 74.5,143.5C 76.1021,127.13 84.1021,114.963 98.5,107C 120.772,97.9034 140.105,102.07 156.5,119.5 Z"/></g>
<g><path style="opacity:1" fill="#fdfdfd" d="M 110.5,111.5 C 126.634,108.93 139.801,113.93 150,126.5C 152.503,131.351 155.003,136.184 157.5,141C 164.815,140.647 172.148,140.647 179.5,141C 198.532,147.556 205.698,160.722 201,180.5C 196.158,191.682 187.658,198.182 175.5,200C 138.5,200.667 101.5,200.667 64.5,200C 45.8668,193.106 40.7001,180.606 49,162.5C 52.4136,157.748 56.9136,154.581 62.5,153C 68.8489,152.725 75.1822,152.725 81.5,153C 81.9622,132.531 91.6288,118.698 110.5,111.5 Z"/></g>
</svg>
